M48
; DRILL file KiCad 10.0.3 date 2026-06-17T09:29:11
; FORMAT={-:-/ absolute / metric / decimal}
; #@! TF.CreationDate,2026-06-17T09:29:11-03:00
; #@! TF.GenerationSoftware,Kicad,Pcbnew,10.0.3
; #@! TF.FileFunction,Plated,1,2,PTH
FMAT,2
METRIC
; #@! TA.AperFunction,Plated,PTH,ComponentDrill
T1C0.800
; #@! TA.AperFunction,Plated,PTH,ComponentDrill
T2C1.000
; #@! TA.AperFunction,Plated,PTH,ComponentDrill
T3C1.100
; #@! TA.AperFunction,Plated,PTH,ComponentDrill
T4C1.300
; #@! TA.AperFunction,Plated,PTH,ComponentDrill
T5C1.500
; #@! TA.AperFunction,Plated,PTH,ComponentDrill
T6C4.000
%
G90
G05
T1
X141.92Y-80.5
X141.92Y-86.5
X142.05Y-105.92
X142.05Y-116.08
X152.08Y-80.5
X152.08Y-86.5
T2
X123.0Y-72.0
X123.0Y-84.0
X123.0Y-89.05
X123.0Y-101.05
X123.0Y-106.0
X123.0Y-118.0
X123.3Y-123.0
X123.3Y-135.0
X156.0Y-82.5
X156.0Y-89.0
X156.0Y-95.0
X156.0Y-101.5
X156.0Y-107.5
X156.0Y-113.5
X156.05Y-119.0
T3
X104.05Y-91.92
X104.05Y-102.08
T4
X96.05Y-93.9
X96.05Y-98.9
X121.05Y-77.95
X121.05Y-95.0
X121.05Y-111.95
X121.35Y-128.95
X135.2Y-84.0
X135.2Y-101.05
X135.2Y-118.0
X135.25Y-71.95
X135.25Y-89.0
X135.25Y-105.95
X135.5Y-135.0
X135.55Y-122.95
T5
X107.5Y-106.0
X107.5Y-123.0
X108.0Y-89.0
X117.5Y-106.0
X117.5Y-123.0
X118.0Y-89.0
T6
X94.5Y-71.0
X94.5Y-134.0
X162.0Y-71.0
X162.0Y-134.0
M30
